<?xml version="1.0" standalone="no"?>
<!DOCTYPE svg PUBLIC "-//W3C//DTD SVG 20010904//EN"
 "http://www.w3.org/TR/2001/REC-SVG-20010904/DTD/svg10.dtd">
<svg version="1.0" xmlns="http://www.w3.org/2000/svg"
 width="200.000000pt" height="200.000000pt" viewBox="0 0 200.000000 200.000000"
 preserveAspectRatio="xMidYMid meet">
<metadata>
Created by potrace 1.14, written by Peter Selinger 2001-2017
</metadata>
<g transform="translate(0.000000,200.000000) scale(0.100000,-0.100000)"
fill="#000000" stroke="none">
<path d="M865 1950 c-91 -13 -206 -50 -289 -91 -44 -22 -86 -45 -93 -51 -7 -5
-16 -8 -20 -5 -4 3 -39 8 -78 12 -38 4 -73 9 -78 12 -13 8 -46 -27 -42 -45 1
-10 6 -39 9 -66 4 -27 9 -52 11 -56 2 -4 -23 -42 -55 -86 -132 -176 -191 -348
-196 -569 -4 -204 40 -367 147 -541 l19 -32 -25 -16 c-77 -50 -79 -160 -3
-216 25 -19 39 -22 86 -18 46 4 60 10 83 36 l28 31 23 -21 c78 -69 230 -148
343 -179 105 -29 112 -29 252 -34 223 -6 428 59 602 192 67 51 71 52 81 32 27
-49 120 -75 173 -48 83 43 96 155 25 214 -16 14 -36 25 -44 25 -10 0 -6 14 16
53 90 153 130 292 136 467 6 232 -53 428 -186 612 -51 70 -50 67 -34 158 12
66 10 82 -13 97 -12 8 -26 13 -30 10 -4 -3 -30 -8 -58 -11 -27 -4 -64 -9 -82
-12 -22 -4 -43 2 -70 19 -78 48 -190 92 -287 113 -80 18 -276 26 -351 14z"/>
</g>
</svg>
